<?xml version="1.0" encoding="utf-8"?>
<!-- Generator: Adobe Illustrator 27.9.0, SVG Export Plug-In . SVG Version: 6.00 Build 0)  -->
<svg version="1.1" xmlns="http://www.w3.org/2000/svg" xmlns:xlink="http://www.w3.org/1999/xlink" x="0px" y="0px"
	 viewBox="0 0 590 75" style="enable-background:new 0 0 590 75;" xml:space="preserve">
<style type="text/css">
	.st0{fill:#005156;}
	.st1{fill:#C6D6D7;}
	.st2{fill:url(#SVGID_1_);}
	.st3{opacity:0.7;}
	.st4{fill:url(#SVGID_00000136413318800532565870000017108041648023688320_);}
	.st5{fill:url(#SVGID_00000017512718753241624170000008184908276634576558_);}
	.st6{opacity:0.68;}
	.st7{fill:url(#SVGID_00000121984120399284469880000006323405296324442763_);}
	.st8{fill:url(#SVGID_00000114031152971150102000000001068290463160283579_);}
	.st9{fill:url(#SVGID_00000065070950453586956650000014917675557796318344_);}
	.st10{fill:url(#SVGID_00000078024258077603706520000016874833654420069041_);}
	.st11{fill:url(#SVGID_00000109721760191015615170000007287244673012982444_);}
	.st12{opacity:0.1;}
	.st13{fill:#C6C6C6;}
	.st14{opacity:0.3;}
	.st15{fill:#808080;}
	.st16{opacity:0.36;}
	.st17{fill:url(#SVGID_00000088813268069985149500000002834440694654520756_);}
	.st18{fill:url(#SVGID_00000015318285405143120720000003991189686496153739_);}
	.st19{fill:url(#SVGID_00000155830056662934175380000001463681952340565907_);}
	.st20{fill:url(#SVGID_00000047057657749231614630000009861697748677420726_);}
	.st21{fill:url(#SVGID_00000039127170830440743730000012177679139062414990_);}
	.st22{fill:url(#SVGID_00000101801291549759853410000008090186941451352494_);}
	.st23{fill:url(#SVGID_00000008865237742258220390000015670776452326830731_);}
	.st24{fill:url(#SVGID_00000034794292282807910840000012910356330277760181_);}
	.st25{fill:url(#SVGID_00000119083432733660171170000017742041367651268516_);}
	.st26{fill:url(#SVGID_00000114054378990289196890000012137723798113876367_);}
	.st27{fill:url(#SVGID_00000107564222550882678740000003268814414539263117_);}
	.st28{fill:url(#SVGID_00000059288969592252436260000004745750438827417240_);}
	.st29{fill:url(#SVGID_00000029047899226168133520000013757337528510621110_);}
	.st30{fill:url(#SVGID_00000018232471326818858920000001849372043467019392_);}
	.st31{fill:url(#SVGID_00000060731414211496142630000012702597067100325258_);}
	.st32{fill:url(#SVGID_00000128482807511580381590000008213742802902861476_);}
	.st33{fill:url(#SVGID_00000098937163738908186670000000383155419137267364_);}
	.st34{fill:url(#SVGID_00000180354759712160483170000007097018225457678979_);}
	.st35{fill:url(#SVGID_00000095303379458356700880000005110900453828223874_);}
	.st36{fill:url(#SVGID_00000117672162406957515390000012889010978136057223_);}
	.st37{fill:url(#SVGID_00000132809746437831371400000005544941409988799149_);}
	.st38{fill:url(#SVGID_00000109027456902904770580000008740408118413322426_);}
	.st39{fill:url(#SVGID_00000016039551796389641620000007311221071446308271_);}
	.st40{fill:url(#SVGID_00000020392656449680004410000000757261913560373634_);}
	.st41{fill:url(#SVGID_00000030470696553392832350000018404576531173385892_);}
	.st42{fill:url(#SVGID_00000002375298217876740700000003696359457338259097_);}
	.st43{fill:url(#SVGID_00000120546913610481516320000001336630221830464130_);}
	.st44{fill:url(#SVGID_00000101784999743509545940000016185163754305336767_);}
	.st45{fill:url(#SVGID_00000124864325192748007850000010871083113026367400_);}
	.st46{fill:url(#SVGID_00000071541149869525860420000015887761438643800759_);}
	.st47{fill:url(#SVGID_00000147191609218606197390000006873141751062448543_);}
	.st48{fill:url(#SVGID_00000144321440637171308210000011894701642758679957_);}
	.st49{fill:url(#SVGID_00000096755950243754239290000004506118710222128542_);}
	.st50{fill:url(#SVGID_00000010281038862814478200000015808500738454531500_);}
	.st51{fill:url(#SVGID_00000067941420602684175420000014133428062179433896_);}
	.st52{fill:url(#SVGID_00000039130374906474279060000013564333727373285536_);}
	.st53{fill:url(#SVGID_00000036964264121310985920000010279499968768844191_);}
	.st54{fill:url(#SVGID_00000114789642025801775690000008390591620584486035_);}
	.st55{fill:url(#SVGID_00000110465199968849260210000014673634835284319154_);}
	.st56{fill:url(#SVGID_00000119827651953097930080000009067170653537231256_);}
	.st57{fill:url(#SVGID_00000126306841278589959470000008695557540735078846_);}
	.st58{fill:url(#SVGID_00000132799951786309861450000005632521519912316351_);}
	.st59{fill:url(#SVGID_00000044875144126283786540000001090788854052727190_);}
	.st60{fill:#FFFFFF;}
	.st61{fill:#00A47E;}
	.st62{fill:#93B3B5;}
	.st63{fill:none;stroke:#005156;stroke-width:0.75;stroke-miterlimit:10;}
	.st64{fill:none;stroke:#000000;stroke-width:0.25;stroke-miterlimit:10;}
	.st65{opacity:0.48;}
	.st66{opacity:0.8;fill:#231815;}
	.st67{fill-rule:evenodd;clip-rule:evenodd;fill:#FFFFFF;}
	.st68{fill:url(#SVGID_00000093156613079856012170000002160129307487800251_);}
	.st69{clip-path:url(#SVGID_00000043422686277353485210000014794615132678810815_);}
	.st70{fill:#EDE127;}
	.st71{fill:#139287;}
	.st72{fill:#68A831;}
	.st73{fill:url(#SVGID_00000148652449421203117940000012390232115229520779_);}
	.st74{fill:url(#SVGID_00000095303194497489885750000004411920831561046690_);}
	.st75{fill:url(#SVGID_00000013173536094493571200000013700961808098569882_);}
	.st76{fill:url(#SVGID_00000183234989084419500580000007727185154041182630_);}
	.st77{fill:url(#SVGID_00000114051760968404146810000004494060770581399743_);}
	.st78{fill:url(#SVGID_00000051377758376018097500000013961576599908716730_);}
	.st79{fill:url(#SVGID_00000012437107834130278180000008209339802255875234_);}
	.st80{fill:url(#SVGID_00000066496654120424870970000004775779942848740523_);}
	.st81{fill:#8FC147;}
	.st82{fill:#EDBB1D;}
	.st83{fill:#D6CD43;}
	.st84{fill:url(#SVGID_00000086675612456500657380000014741507871179179416_);}
	.st85{fill:#004250;}
	.st86{fill:#209990;}
	.st87{fill:url(#SVGID_00000163046053575989308030000007619647863696906639_);}
	.st88{clip-path:url(#SVGID_00000016795924009093771650000007958408749667745152_);}
	.st89{fill:url(#SVGID_00000039841730167855111520000010626339039744893578_);}
	.st90{fill:#313333;}
	.st91{fill:url(#SVGID_00000047767841783687515780000001694240774611470995_);}
	.st92{fill:url(#SVGID_00000108276247524767800770000013440150390433153462_);}
	.st93{fill:url(#SVGID_00000081618629670085532060000001465726990723419560_);}
	.st94{fill:url(#SVGID_00000070830027332867992580000005296788644765477540_);}
	.st95{fill:url(#SVGID_00000106105984655256357390000010080760689407545246_);}
	.st96{fill:url(#SVGID_00000127736955431650588020000008637881784684419492_);}
	.st97{fill:url(#SVGID_00000072272688401210680750000004079055708543787962_);}
	.st98{fill:#2E8B36;}
	.st99{fill:#067788;}
	.st100{fill:#E9E9E9;}
	.st101{fill:#D9D9D9;}
	.st102{fill:#C9C9C9;}
	.st103{fill:#B9B9B9;}
	.st104{fill:#A9A9A8;}
	.st105{fill:#999998;}
	.st106{fill:#898988;}
	.st107{fill:#7F7F7E;}
	.st108{fill:#6F6F6E;}
	.st109{fill:#EEEEEE;}
	.st110{fill:#EFEFEF;}
	.st111{fill:#DFDFDF;}
	.st112{fill:#CFCFCF;}
	.st113{fill:#BFBFBF;}
	.st114{fill:#AFAFAE;}
	.st115{fill:#9F9F9E;}
	.st116{fill:#8F8F8E;}
	.st117{fill:#FF8900;}
	.st118{fill:none;stroke:#FFFFFF;stroke-miterlimit:10;}
	.st119{fill:none;stroke:#005156;stroke-miterlimit:10;}
	.st120{fill:none;stroke:#FFFFFF;stroke-width:0.75;stroke-miterlimit:10;}
	.st121{clip-path:url(#SVGID_00000137102446750507734430000001704490058441803950_);}
	.st122{fill:none;stroke:#231815;stroke-width:0.25;stroke-miterlimit:10;}
	.st123{opacity:0.8;fill:none;stroke:#231815;stroke-width:0.5;stroke-miterlimit:10;}
	.st124{fill:#0B308A;}
	.st125{fill:#231815;}
	.st126{fill:#17264B;}
	.st127{fill:#BCCDE4;}
	.st128{fill:#1C96D5;}
	.st129{fill-rule:evenodd;clip-rule:evenodd;}
	
		.st130{clip-path:url(#SVGID_00000009583440732176576680000008415197970165849788_);fill:url(#SVGID_00000056427268320752174760000007525471312491857055_);}
	
		.st131{clip-path:url(#SVGID_00000144297376073798120500000017513941547041225870_);fill:url(#SVGID_00000160173485851930343710000010595130193228881842_);}
	
		.st132{clip-path:url(#SVGID_00000163781276905154604990000013832616497637288101_);fill:url(#SVGID_00000154384255323851269220000018365462008501851274_);}
	
		.st133{clip-path:url(#SVGID_00000031178805442064240250000012307984824381611682_);fill:url(#SVGID_00000090252704266634304790000013862925769689218205_);}
	.st134{fill:#1C2A51;}
	.st135{fill:url(#SVGID_00000143589440104384285640000009307427425771113129_);}
	.st136{fill:url(#SVGID_00000137109733249908397030000015133816769221297594_);}
	.st137{fill:url(#SVGID_00000121988875658566600570000004849768689134028718_);}
	.st138{fill:url(#SVGID_00000034772545733488148090000009033427046784192439_);}
	.st139{fill-rule:evenodd;clip-rule:evenodd;fill:#3DCA52;}
	.st140{fill:url(#SVGID_00000108279271323656951760000009075141152778617498_);}
	.st141{fill:url(#SVGID_00000137119296446448511810000011724396412377536445_);}
	.st142{fill:#AE8346;}
	.st143{fill:#FF5800;}
	.st144{fill:url(#SVGID_00000000934771552843834240000015890787051820779963_);}
	.st145{clip-path:url(#SVGID_00000015312877331308568300000017388455222442126770_);}
	.st146{fill:url(#SVGID_00000097502794218220364090000004549238135961366700_);}
	.st147{fill:url(#SVGID_00000129193641431831417250000003241499394542021286_);}
	.st148{fill:url(#SVGID_00000183224354342780491490000014514392730083602068_);}
	.st149{fill:url(#SVGID_00000098919680404235900980000015304898718614943157_);}
	.st150{fill:url(#SVGID_00000033346581067763939420000014744580443879409327_);}
	.st151{fill:url(#SVGID_00000139986813184371428510000010527726958151389844_);}
	.st152{fill:url(#SVGID_00000072256269906359453540000006331468289866067616_);}
	.st153{fill:url(#SVGID_00000124879832772580278970000007847678388507052219_);}
	.st154{fill:url(#SVGID_00000158747754821519791110000011078069930559923339_);}
	.st155{fill:url(#SVGID_00000029746637165069191420000005164803315673756861_);}
	.st156{clip-path:url(#SVGID_00000002343636857836373850000004966784540593955753_);}
	.st157{fill:url(#SVGID_00000145042215940974211700000017039687061242264225_);}
	.st158{fill:url(#SVGID_00000132073507466058982980000005395637363519227011_);}
	.st159{fill:url(#SVGID_00000099649352897256312620000003220808561845992867_);}
	.st160{fill:url(#SVGID_00000056414379821143037500000011194223738461073033_);}
	.st161{fill:url(#SVGID_00000032650694165891424570000008222660447061107119_);}
	.st162{fill:url(#SVGID_00000128468713084843000840000003078737580680694955_);}
	.st163{fill:url(#SVGID_00000051376372308672433490000000572640357950592181_);}
	.st164{fill:url(#SVGID_00000107575308182098968030000003524908669448787332_);}
	.st165{fill:none;stroke:#005156;stroke-width:0.9812;stroke-miterlimit:10;}
	
		.st166{clip-path:url(#SVGID_00000098208361080212786420000015313581602349380510_);fill:url(#SVGID_00000158008147990243799440000013559170796284780220_);}
	
		.st167{clip-path:url(#SVGID_00000057836300377084255700000001802103978553749122_);fill:url(#SVGID_00000157989719907099431950000016579216589922402445_);}
	
		.st168{clip-path:url(#SVGID_00000114752827223925205340000017037437158725698988_);fill:url(#SVGID_00000116955058499039493910000008872617429154145432_);}
	
		.st169{clip-path:url(#SVGID_00000120548034312926330560000000316374780757258368_);fill:url(#SVGID_00000064312870693260054660000009109147841075436950_);}
	.st170{fill:url(#SVGID_00000040567308676232395480000012374071985683055237_);}
	.st171{fill:url(#SVGID_00000088122679539651600140000004959321592792836513_);}
	.st172{fill:url(#SVGID_00000144335726335156525270000002454705053867472819_);}
	.st173{fill:url(#SVGID_00000036968168436476205540000001023437068049451648_);}
	.st174{fill:url(#SVGID_00000054240500003356455860000003174212474350096256_);}
	.st175{fill:url(#SVGID_00000109738125063444744130000016158199462910046646_);}
	.st176{fill:#559A34;}
	.st177{fill:none;}
	.st178{fill:#FFCA00;}
	.st179{fill:#FFC0A3;}
	.st180{fill:#73D194;}
	.st181{fill:#FFCB00;}
	.st182{fill:none;stroke:#FFFFFF;stroke-width:0.9812;stroke-miterlimit:10;}
	.st183{fill:#006195;}
	
		.st184{clip-path:url(#SVGID_00000119112814089490456760000015844016931902573193_);fill:url(#SVGID_00000179623746210360709990000013848712170653519507_);}
	
		.st185{clip-path:url(#SVGID_00000134943670780258064120000016760999596367573154_);fill:url(#SVGID_00000181768987170967152650000009852227874545381043_);}
	
		.st186{clip-path:url(#SVGID_00000116202401134210372790000006423721639045244351_);fill:url(#SVGID_00000127024593299304559100000010756047266472700041_);}
	
		.st187{clip-path:url(#SVGID_00000100373185637731203830000003990395496658278539_);fill:url(#SVGID_00000045589520534773344880000017867727373652512959_);}
	.st188{fill:url(#SVGID_00000105417708616290100190000016075355124308814473_);}
	.st189{fill:url(#SVGID_00000054242301669109322450000016716734070641624971_);}
	.st190{fill:url(#SVGID_00000153694969555527941050000012051586077965145241_);}
	.st191{fill:url(#SVGID_00000154427627239843833110000000369492493406012065_);}
	.st192{fill:url(#SVGID_00000099654464122021918640000011138405837425186217_);}
	.st193{fill:url(#SVGID_00000155127047748855340530000015453683207579993501_);}
	
		.st194{clip-path:url(#SVGID_00000064312992236207323390000009656831395931742638_);fill:url(#SVGID_00000072260054043067447990000007049888503260510610_);}
	
		.st195{clip-path:url(#SVGID_00000098941225187617810870000001249347642188701086_);fill:url(#SVGID_00000060029834722879313870000016685127282031554443_);}
	
		.st196{clip-path:url(#SVGID_00000057845392022965637020000017128531506626851458_);fill:url(#SVGID_00000041254256355125874140000002275463702128972936_);}
	
		.st197{clip-path:url(#SVGID_00000003090302370490595430000003605254761377402272_);fill:url(#SVGID_00000075848433076203514020000004652106281431036332_);}
	.st198{fill:url(#SVGID_00000139975366840034998140000007635404356756267399_);}
	.st199{fill:url(#SVGID_00000070821776367178390640000009686249361414229410_);}
	.st200{fill:url(#SVGID_00000116224434457923048740000016899950389843041705_);}
	.st201{fill:url(#SVGID_00000175317555503048138280000012164146416464530617_);}
	.st202{fill:url(#SVGID_00000181058623780284110840000017889485023173117363_);}
	.st203{fill:url(#SVGID_00000134232426460998029840000009812019234373181085_);}
</style>
<g id="圖層_1">
	<g>
		<path class="st61" d="M556.7,75H33.3C15,75,0,60,0,41.7v-8.4C0,15,15,0,33.3,0h523.4C575,0,590,15,590,33.3v8.4
			C590,60,575,75,556.7,75z"/>
		<g>
			<path class="st60" d="M178.5,49.6v4.2h-32.6v-4.2h12.8V23.4h4.6v9.9H176v4.2h-12.7v12H178.5z"/>
			<path class="st60" d="M216,42.8h-13.9v12.7h-4.4V42.8h-13.9v-4.2h13.9v-7.2h-6c-1.3,2.4-2.8,4.5-4.3,6.1
				c-0.9-0.7-2.9-1.9-4.1-2.5c3-2.8,5.6-7.4,7-12.1l4.6,1.1c-0.4,1.1-0.8,2.3-1.3,3.4h19.6v4.1h-11.1v7.2H216V42.8z"/>
			<path class="st60" d="M240,40.4c-0.3,0.6-0.6,1.1-1,1.7h14.6c0,0,0,0.9-0.1,1.4c-0.5,6.8-1.1,9.6-2,10.6
				c-0.7,0.8-1.5,1.1-2.4,1.2c-0.8,0.1-2.2,0.1-3.6,0.1c-0.1-1-0.4-2.4-1-3.2c1.1,0.1,2.1,0.1,2.5,0.1c0.5,0,0.8-0.1,1.1-0.4
				c0.5-0.5,0.9-2.3,1.3-6.5H248c-1.5,3.9-4.3,8.1-7.2,10.3c-0.7-0.8-1.9-1.7-3-2.3c2.7-1.7,5.1-4.8,6.7-8h-2.1
				c-1.9,3.3-5.3,6.8-8.4,8.7c-0.7-0.8-1.8-1.8-2.8-2.4c2.7-1.3,5.4-3.7,7.3-6.3h-2.2c-1.3,1.3-2.7,2.5-4.2,3.4
				c-0.5-0.7-1.9-1.9-2.8-2.4c-2.6,1.3-5.2,2.5-7.4,3.5l-1.6-4.2c1.2-0.5,2.7-1,4.4-1.7v-9.8h-3.6v-3.9h3.6v-6.9h3.9v6.9h3.4v3.9
				h-3.4v8.2l2.9-1.2l0.8,3c1.3-1.1,2.4-2.3,3.3-3.7h-4.1v-3.5h22.6v3.5H240z M251.9,35.6h-17V23.9h17V35.6z M247.9,26.7h-9.3v1.7
				h9.3V26.7z M247.9,31.1h-9.3v1.7h9.3V31.1z"/>
			<path class="st60" d="M270.2,32h-11.7v-3.2h5c-0.3-1.3-1-3.2-1.8-4.6l3-1.1c0.8,1.4,1.7,3.4,2,4.6l-2.6,1h6V32z M269.2,53.6h-6.6
				V55h-3V43.1h9.6V53.6z M259.8,33.6h9.5v3.1h-9.5V33.6z M259.8,38.3h9.5v3.1h-9.5V38.3z M262.7,46.3v4.1h3.6v-4.1H262.7z
				 M290.3,47.3c-0.9,1.4-2.1,2.7-3.4,3.8c0.5,0.9,1.1,1.3,1.9,1.3c0.5,0,0.9-0.9,1-2.8c0.7,0.6,1.7,1.1,2.4,1.4
				c-0.5,3.3-1.6,4.6-3.8,4.6c-1.8,0-3.2-0.9-4.3-2.5c-1.2,0.8-2.4,1.4-3.7,1.9c-0.4-0.6-1.3-1.6-2-2.2c1.5-0.6,3-1.4,4.5-2.4
				c-0.5-1.5-0.8-3.1-1.1-5h-3.5v1.3l2.9-0.3l0.1,2.9l-2.9,0.3v2.3c0,1.6-0.3,2.3-1.4,2.8c-1.1,0.5-2.7,0.5-4.8,0.5
				c-0.1-0.9-0.6-2.1-1-2.9c1.2,0,2.6,0,3,0c0.4,0,0.6-0.1,0.6-0.5v-1.8c-1.5,0.2-3,0.3-4.3,0.5l-0.4-3.2c1.4-0.1,2.9-0.2,4.7-0.4
				v-1.7h-4.5v-3h4.5V41c-1.1,0.1-2.3,0.2-3.3,0.3c-0.1-0.7-0.5-1.7-0.8-2.4c3-0.3,6.6-0.8,8.7-1.5l2.2,2.4c0-0.7-0.1-1.3-0.1-1.9
				h3.6c0,1.6,0,3.2,0.1,4.6h3.7c-0.7-1-2.2-2.3-3.4-3.2l2.4-1.6c1.3,0.9,2.9,2.2,3.7,3.2l-2.3,1.6h2.5v3h-6.3
				c0.1,1,0.3,1.8,0.5,2.6c0.6-0.7,1.3-1.4,1.7-2.2L290.3,47.3z M291.6,37.2h-21.4v-3h8.6v-1.4h-6.4v-2.6h6.4v-1.3h-7.5v-2.7h3.9
				c-0.4-0.7-0.9-1.5-1.4-2.2l3-1c0.8,1,1.6,2.3,2,3.2h4.4c0.6-1,1.3-2.3,1.6-3.2l3.7,0.9c-0.5,0.8-1.1,1.6-1.7,2.3h3.9v2.7H283v1.3
				h6.8v2.6H283v1.4h8.6L291.6,37.2z M281.5,42.5c-0.1-0.9-0.1-1.7-0.1-2.6c-0.9,0.2-1.9,0.5-3,0.7v2H281.5z"/>
			<path class="st60" d="M307.4,46.1c-0.5-1.1-1.4-2.9-2.2-4.4v13.8h-4.1V42.6c-1,2.9-2.2,5.6-3.6,7.5c-0.4-1.3-1.3-3.1-1.8-4.1
				c1.7-2.3,3.4-6,4.4-9.3h-3.9v-3.9h4.9v-4.2c-1.1,0.2-2.3,0.4-3.4,0.6c-0.2-0.9-0.7-2.3-1.1-3.2c3.7-0.6,7.7-1.7,10.4-2.9l2.3,3.4
				c-1.3,0.5-2.6,0.9-4.1,1.3v5h4v3.9h-4v0.6c0.9,1,3.8,4.6,4.5,5.5L307.4,46.1z M329.3,51.1v3.7h-20.7v-3.7h8.6V48h-6.8v-3.5h6.8
				v-2.8c-1.9,0.1-3.8,0.2-5.6,0.3c-0.1-0.9-0.6-2.3-1-3.1c5.2-0.3,11-1,14.6-1.9l2.6,3.1c-1.9,0.5-4.1,0.8-6.3,1.1v3.3h6.4V48h-6.4
				v3.2H329.3z M327.6,36.5h-17v-12h17V36.5z M323.5,28h-8.9v5h8.9V28z"/>
		</g>
		<polyline class="st182" points="346.2,46.2 461.2,46.2 447.2,32.6 		"/>
	</g>
</g>
<g id="參考線">
</g>
<g id="Dimensions">
</g>
</svg>
