<?xml version="1.0" encoding="utf-8"?>
<!-- Generator: Adobe Illustrator 27.9.0, SVG Export Plug-In . SVG Version: 6.00 Build 0)  -->
<svg version="1.1" xmlns="http://www.w3.org/2000/svg" xmlns:xlink="http://www.w3.org/1999/xlink" x="0px" y="0px"
	 viewBox="0 0 590 75" style="enable-background:new 0 0 590 75;" xml:space="preserve">
<style type="text/css">
	.st0{fill:#005156;}
	.st1{fill:#C6D6D7;}
	.st2{fill:url(#SVGID_1_);}
	.st3{opacity:0.7;}
	.st4{fill:url(#SVGID_00000044867699603350346190000006789013085215213499_);}
	.st5{fill:url(#SVGID_00000133517928494946876570000007248810498982398901_);}
	.st6{opacity:0.68;}
	.st7{fill:url(#SVGID_00000026146278921519814050000004854911810841232553_);}
	.st8{fill:url(#SVGID_00000066500866341905452310000014263253665384853181_);}
	.st9{fill:url(#SVGID_00000035510794307150015920000002692579597177204923_);}
	.st10{fill:url(#SVGID_00000140735347479538556900000011435214274647821704_);}
	.st11{fill:url(#SVGID_00000080903152446472892350000001327924268330785470_);}
	.st12{opacity:0.1;}
	.st13{fill:#C6C6C6;}
	.st14{opacity:0.3;}
	.st15{fill:#808080;}
	.st16{opacity:0.36;}
	.st17{fill:url(#SVGID_00000176750023282302289700000003488235015429425328_);}
	.st18{fill:url(#SVGID_00000140717112495904623270000016740888250556161677_);}
	.st19{fill:url(#SVGID_00000124884440747702153240000006580938420002460339_);}
	.st20{fill:url(#SVGID_00000092435368718085408920000009066665163015279496_);}
	.st21{fill:url(#SVGID_00000176754820284579873990000008540974613580148893_);}
	.st22{fill:url(#SVGID_00000046328983761566815430000017805628120678569872_);}
	.st23{fill:url(#SVGID_00000134251368761390619680000001690776106225204364_);}
	.st24{fill:url(#SVGID_00000049907764461160170440000013066666362152902575_);}
	.st25{fill:url(#SVGID_00000075868472499300401580000013146944919169710262_);}
	.st26{fill:url(#SVGID_00000041265319172752715610000014351637769486630067_);}
	.st27{fill:url(#SVGID_00000062911081656831086710000002345246331597665207_);}
	.st28{fill:url(#SVGID_00000098926955580802942630000016890799598888373153_);}
	.st29{fill:url(#SVGID_00000094593330639189324780000010391821559217166768_);}
	.st30{fill:url(#SVGID_00000158713851743232983950000011247805154228094879_);}
	.st31{fill:url(#SVGID_00000031168166292595637760000011945142354598354848_);}
	.st32{fill:url(#SVGID_00000090289773988077473310000006433033768695327616_);}
	.st33{fill:url(#SVGID_00000097480155421329305070000018064382233867989684_);}
	.st34{fill:url(#SVGID_00000044160085379063762580000017467604873298300580_);}
	.st35{fill:url(#SVGID_00000018943034100455194070000001185907423504257452_);}
	.st36{fill:url(#SVGID_00000034770681086003509590000006641076880408595603_);}
	.st37{fill:url(#SVGID_00000118362915843664640270000015429516741907217295_);}
	.st38{fill:url(#SVGID_00000117677045128201956230000011315568367742943415_);}
	.st39{fill:url(#SVGID_00000067228756946574952380000009705533918162075833_);}
	.st40{fill:url(#SVGID_00000173844338654553859840000009839762330428214407_);}
	.st41{fill:url(#SVGID_00000083786890794909864060000013577568367746807727_);}
	.st42{fill:url(#SVGID_00000141450022867950944890000004118238933816223878_);}
	.st43{fill:url(#SVGID_00000164478586840513999190000014068111796159750530_);}
	.st44{fill:url(#SVGID_00000154407873132844516190000001849759753374360746_);}
	.st45{fill:url(#SVGID_00000014620809850332888490000003968125147563504545_);}
	.st46{fill:url(#SVGID_00000013194042952076147230000000178039887100896903_);}
	.st47{fill:url(#SVGID_00000078748833927341537650000017438858461143798931_);}
	.st48{fill:url(#SVGID_00000114784021454516232270000003039420548754849459_);}
	.st49{fill:url(#SVGID_00000144339209671045577860000012887063101285622150_);}
	.st50{fill:url(#SVGID_00000139271917513760009930000007838330022712630714_);}
	.st51{fill:url(#SVGID_00000088837326625663035440000004117667518310846597_);}
	.st52{fill:url(#SVGID_00000033368643945298829180000003309177612992625083_);}
	.st53{fill:url(#SVGID_00000064353125682002278360000005367815753797472172_);}
	.st54{fill:url(#SVGID_00000099641041493254281970000000499101916713765555_);}
	.st55{fill:url(#SVGID_00000128476629732579921570000004602666198545712798_);}
	.st56{fill:url(#SVGID_00000084526213229929713350000015691487017351624352_);}
	.st57{fill:url(#SVGID_00000039854885060130656610000003640957633430662551_);}
	.st58{fill:url(#SVGID_00000096752606196442689770000001278617142912561044_);}
	.st59{fill:url(#SVGID_00000040565544893872968850000015694605712666677942_);}
	.st60{fill:#FFFFFF;}
	.st61{fill:#00A47E;}
	.st62{fill:#93B3B5;}
	.st63{fill:none;stroke:#005156;stroke-width:0.75;stroke-miterlimit:10;}
	.st64{fill:none;stroke:#000000;stroke-width:0.25;stroke-miterlimit:10;}
	.st65{opacity:0.48;}
	.st66{opacity:0.8;fill:#231815;}
	.st67{fill-rule:evenodd;clip-rule:evenodd;fill:#FFFFFF;}
	.st68{fill:url(#SVGID_00000114038848931605865310000009020534731305751465_);}
	.st69{clip-path:url(#SVGID_00000141436332564088097600000012318317864244829864_);}
	.st70{fill:#EDE127;}
	.st71{fill:#139287;}
	.st72{fill:#68A831;}
	.st73{fill:url(#SVGID_00000016785064658092527950000016642239306083121045_);}
	.st74{fill:url(#SVGID_00000099662085971727889800000000035480301988351123_);}
	.st75{fill:url(#SVGID_00000134228287154142614710000006448917812077084081_);}
	.st76{fill:url(#SVGID_00000116201609578021637550000016456524290714053805_);}
	.st77{fill:url(#SVGID_00000138570069912686609920000004477473304710275461_);}
	.st78{fill:url(#SVGID_00000160886978679784599410000007102915043223546766_);}
	.st79{fill:url(#SVGID_00000052802315115309688240000017619793318215749760_);}
	.st80{fill:url(#SVGID_00000013901508665548268380000015752530363969204633_);}
	.st81{fill:#8FC147;}
	.st82{fill:#EDBB1D;}
	.st83{fill:#D6CD43;}
	.st84{fill:url(#SVGID_00000121987803513110401520000004187261517744120466_);}
	.st85{fill:#004250;}
	.st86{fill:#209990;}
	.st87{fill:url(#SVGID_00000173145728837950107100000015849761904392647825_);}
	.st88{clip-path:url(#SVGID_00000091696928336948755990000003787812618059310482_);}
	.st89{fill:url(#SVGID_00000111909745098970297020000000853837728334869931_);}
	.st90{fill:#313333;}
	.st91{fill:url(#SVGID_00000177452041981539474380000013674868831190560958_);}
	.st92{fill:url(#SVGID_00000181793332996240679150000001288576530211352208_);}
	.st93{fill:url(#SVGID_00000144328135450245265160000007857610161945622714_);}
	.st94{fill:url(#SVGID_00000018932411634730196620000011757998155679019397_);}
	.st95{fill:url(#SVGID_00000087391765049924103870000016029681826916079748_);}
	.st96{fill:url(#SVGID_00000118384310047926909520000000311354528071672469_);}
	.st97{fill:url(#SVGID_00000165917059018031035110000006426220206743724458_);}
	.st98{fill:#2E8B36;}
	.st99{fill:#067788;}
	.st100{fill:#E9E9E9;}
	.st101{fill:#D9D9D9;}
	.st102{fill:#C9C9C9;}
	.st103{fill:#B9B9B9;}
	.st104{fill:#A9A9A8;}
	.st105{fill:#999998;}
	.st106{fill:#898988;}
	.st107{fill:#7F7F7E;}
	.st108{fill:#6F6F6E;}
	.st109{fill:#EEEEEE;}
	.st110{fill:#EFEFEF;}
	.st111{fill:#DFDFDF;}
	.st112{fill:#CFCFCF;}
	.st113{fill:#BFBFBF;}
	.st114{fill:#AFAFAE;}
	.st115{fill:#9F9F9E;}
	.st116{fill:#8F8F8E;}
	.st117{fill:#FF8900;}
	.st118{fill:none;stroke:#FFFFFF;stroke-miterlimit:10;}
	.st119{fill:none;stroke:#005156;stroke-miterlimit:10;}
	.st120{fill:none;stroke:#FFFFFF;stroke-width:0.75;stroke-miterlimit:10;}
	.st121{clip-path:url(#SVGID_00000164475649214619842650000004309265872570995345_);}
	.st122{fill:none;stroke:#231815;stroke-width:0.25;stroke-miterlimit:10;}
	.st123{opacity:0.8;fill:none;stroke:#231815;stroke-width:0.5;stroke-miterlimit:10;}
	.st124{fill:#0B308A;}
	.st125{fill:#231815;}
	.st126{fill:#17264B;}
	.st127{fill:#BCCDE4;}
	.st128{fill:#1C96D5;}
	.st129{fill-rule:evenodd;clip-rule:evenodd;}
	
		.st130{clip-path:url(#SVGID_00000025407097078084777620000011068092125483552393_);fill:url(#SVGID_00000137101109500893865840000001425592686723973299_);}
	
		.st131{clip-path:url(#SVGID_00000170980175109190452110000009880182536453009313_);fill:url(#SVGID_00000055703646028036689060000004194222898777955207_);}
	
		.st132{clip-path:url(#SVGID_00000009571548991624578100000005792597838229428414_);fill:url(#SVGID_00000102520130999362466250000015759796578893833897_);}
	
		.st133{clip-path:url(#SVGID_00000116197712595793290300000001860490064694260873_);fill:url(#SVGID_00000145033893724724659470000010049189673109385620_);}
	.st134{fill:#1C2A51;}
	.st135{fill:url(#SVGID_00000134954933376678165410000013750815461181860232_);}
	.st136{fill:url(#SVGID_00000150100398694894990930000001196136019671042197_);}
	.st137{fill:url(#SVGID_00000181088881415837991550000001927104182929765287_);}
	.st138{fill:url(#SVGID_00000102509792916725700880000000252783123829231527_);}
	.st139{fill-rule:evenodd;clip-rule:evenodd;fill:#3DCA52;}
	.st140{fill:url(#SVGID_00000158729766582631358360000014726789201895527827_);}
	.st141{fill:url(#SVGID_00000161617898210076413530000001474241103094286248_);}
	.st142{fill:#AE8346;}
	.st143{fill:#FF5800;}
	.st144{fill:url(#SVGID_00000141424197490038625830000018049646916179470469_);}
	.st145{clip-path:url(#SVGID_00000072997681837376861340000009134388054441642895_);}
	.st146{fill:url(#SVGID_00000053530628346395864980000004434084178399403160_);}
	.st147{fill:url(#SVGID_00000014601321927735794890000000788195435797789824_);}
	.st148{fill:url(#SVGID_00000161604323054783222910000009678928435743671691_);}
	.st149{fill:url(#SVGID_00000061463037940120282210000000545603898605227906_);}
	.st150{fill:url(#SVGID_00000042007319591796080520000014972176206980288413_);}
	.st151{fill:url(#SVGID_00000105392598579754461270000008256571114226551968_);}
	.st152{fill:url(#SVGID_00000137814207091568686470000009578140670491546256_);}
	.st153{fill:url(#SVGID_00000033346005867679413740000007320032759373138083_);}
	.st154{fill:url(#SVGID_00000132801312350640212800000013143972652790773405_);}
	.st155{fill:url(#SVGID_00000118376435142980071360000010697871573468076204_);}
	.st156{clip-path:url(#SVGID_00000029729659988200042690000011428837303493250199_);}
	.st157{fill:url(#SVGID_00000026128652919241895040000010847085687598003867_);}
	.st158{fill:url(#SVGID_00000131359912166757567370000012684764184406127268_);}
	.st159{fill:url(#SVGID_00000150812125593478206630000015482373116243918004_);}
	.st160{fill:url(#SVGID_00000152258410505509582310000002178803200572105097_);}
	.st161{fill:url(#SVGID_00000172421063815126639520000016901961884766597543_);}
	.st162{fill:url(#SVGID_00000154410306261288032620000015678940478804763785_);}
	.st163{fill:url(#SVGID_00000049918156478140607530000007114033924979795127_);}
	.st164{fill:url(#SVGID_00000098209309751061621640000003256613371942540728_);}
	.st165{fill:none;stroke:#005156;stroke-width:0.9812;stroke-miterlimit:10;}
	
		.st166{clip-path:url(#SVGID_00000055684189775108780210000005654587249580064663_);fill:url(#SVGID_00000007406681314049429710000016818908435789046936_);}
	
		.st167{clip-path:url(#SVGID_00000039818335995603639530000007233035873586352524_);fill:url(#SVGID_00000155854111953121565030000017881383660445243790_);}
	
		.st168{clip-path:url(#SVGID_00000149372346654622959540000010777045915194205877_);fill:url(#SVGID_00000144324015852797673490000012568705495326567346_);}
	
		.st169{clip-path:url(#SVGID_00000155125911228666759440000014749459227223988917_);fill:url(#SVGID_00000007409845245382419650000012015996101759696815_);}
	.st170{fill:url(#SVGID_00000137109093037059505310000013428123059627809716_);}
	.st171{fill:url(#SVGID_00000161607531890682275970000005469234453320817334_);}
	.st172{fill:url(#SVGID_00000093151094705131619430000002266809884526392202_);}
	.st173{fill:url(#SVGID_00000016792374069934863470000018217365603202108086_);}
	.st174{fill:url(#SVGID_00000117654360077414429990000008857356886234944655_);}
	.st175{fill:url(#SVGID_00000089574659270974039310000012143886466645134257_);}
	.st176{fill:#559A34;}
	.st177{fill:none;}
	.st178{fill:#FFCA00;}
	.st179{fill:#FFC0A3;}
	.st180{fill:#73D194;}
	.st181{fill:#FFCB00;}
	.st182{fill:none;stroke:#FFFFFF;stroke-width:0.9812;stroke-miterlimit:10;}
	.st183{fill:#006195;}
	
		.st184{clip-path:url(#SVGID_00000124860515566867283750000012148040423785265029_);fill:url(#SVGID_00000091709554835049606880000015340828157540758430_);}
	
		.st185{clip-path:url(#SVGID_00000110436166464376182780000004849358314910920639_);fill:url(#SVGID_00000155859201598157852710000005469826881553793411_);}
	
		.st186{clip-path:url(#SVGID_00000005234660923131525080000002635692818870740387_);fill:url(#SVGID_00000121246464638574381310000002108192082872577183_);}
	
		.st187{clip-path:url(#SVGID_00000097494290013724585280000015700501003642021287_);fill:url(#SVGID_00000121994618666535120860000012355278820892252599_);}
	.st188{fill:url(#SVGID_00000181080500648803372760000017240452141288119214_);}
	.st189{fill:url(#SVGID_00000046338868085304483710000003512749344823381890_);}
	.st190{fill:url(#SVGID_00000133493284485760108270000014014477247418693521_);}
	.st191{fill:url(#SVGID_00000098208989602311720150000002495806277998676401_);}
	.st192{fill:url(#SVGID_00000000918523048987717120000015576643108998887054_);}
	.st193{fill:url(#SVGID_00000085223269564703334620000016351409973912398232_);}
	
		.st194{clip-path:url(#SVGID_00000002345070056642685550000018333834990180521899_);fill:url(#SVGID_00000088828489540795059170000012888324496876670635_);}
	
		.st195{clip-path:url(#SVGID_00000012469872243647652010000010147173076060262563_);fill:url(#SVGID_00000158021742346382210560000018342094477330264488_);}
	
		.st196{clip-path:url(#SVGID_00000165920909429829674630000013969639932770652833_);fill:url(#SVGID_00000049931003335361723770000005951010244400430000_);}
	
		.st197{clip-path:url(#SVGID_00000011728696091750705800000008091149028089326755_);fill:url(#SVGID_00000136375884922595103790000000162578646010294671_);}
	.st198{fill:url(#SVGID_00000029737945247661512700000007023856662920524685_);}
	.st199{fill:url(#SVGID_00000064347864274007818900000002026087538752681363_);}
	.st200{fill:url(#SVGID_00000070091845073702409510000002484781667333729970_);}
	.st201{fill:url(#SVGID_00000160902632138466924260000013643106708052458659_);}
	.st202{fill:url(#SVGID_00000130643281440465995260000003068452078420059276_);}
	.st203{fill:url(#SVGID_00000144329718407603345040000007558025095021832638_);}
</style>
<g id="圖層_1">
	<g>
		<path class="st117" d="M556.7,75H33.3C15,75,0,60,0,41.7v-8.4C0,15,15,0,33.3,0l523.4,0C575,0,590,15,590,33.3v8.4
			C590,60,575,75,556.7,75z"/>
		<g>
			<path class="st60" d="M163.8,29.7v5.5l0.7-0.8c3.9,1.9,9.5,4.9,12.2,7l-3.2,3.8c-2.1-1.8-6.2-4.3-9.8-6.3v16.5h-4.6V29.7h-12.9
				v-4.2h32v4.2H163.8z"/>
			<path class="st60" d="M216,42.8h-13.9v12.7h-4.4V42.8h-13.9v-4.2h13.9v-7.2h-6c-1.3,2.4-2.8,4.5-4.3,6.1
				c-0.9-0.7-2.9-1.9-4.1-2.5c3-2.8,5.6-7.4,7-12.1l4.6,1.1c-0.4,1.1-0.8,2.3-1.3,3.4h19.6v4.1h-11.1v7.2H216V42.8z"/>
			<path class="st60" d="M240,40.4c-0.3,0.6-0.6,1.1-1,1.7h14.6c0,0,0,0.9-0.1,1.4c-0.5,6.8-1.1,9.6-2,10.6
				c-0.7,0.8-1.5,1.1-2.4,1.2c-0.8,0.1-2.2,0.1-3.6,0.1c-0.1-1-0.4-2.4-1-3.2c1.1,0.1,2.1,0.1,2.5,0.1c0.5,0,0.8-0.1,1.1-0.4
				c0.5-0.5,0.9-2.3,1.3-6.5H248c-1.5,3.9-4.3,8.1-7.2,10.3c-0.7-0.8-1.9-1.7-3-2.3c2.7-1.7,5.1-4.8,6.7-8h-2.1
				c-1.9,3.3-5.3,6.8-8.4,8.7c-0.7-0.8-1.8-1.8-2.8-2.4c2.7-1.3,5.4-3.7,7.3-6.3h-2.2c-1.3,1.3-2.7,2.5-4.2,3.4
				c-0.5-0.7-1.9-1.9-2.8-2.4c-2.6,1.3-5.2,2.5-7.4,3.5l-1.6-4.2c1.2-0.5,2.7-1,4.4-1.7v-9.8h-3.6v-3.9h3.6v-6.9h3.9v6.9h3.4v3.9
				h-3.4v8.2l2.9-1.2l0.8,3c1.3-1.1,2.4-2.3,3.3-3.7h-4.1v-3.5h22.6v3.5H240z M251.9,35.6h-17V23.9h17V35.6z M247.9,26.7h-9.3v1.7
				h9.3V26.7z M247.9,31.1h-9.3v1.7h9.3V31.1z"/>
			<path class="st60" d="M270.2,32h-11.7v-3.2h5c-0.3-1.3-1-3.2-1.8-4.6l3-1.1c0.8,1.4,1.7,3.4,2,4.6l-2.6,1h6V32z M269.2,53.6h-6.6
				V55h-3V43.1h9.6V53.6z M259.8,33.6h9.5v3.1h-9.5V33.6z M259.8,38.3h9.5v3.1h-9.5V38.3z M262.7,46.3v4.1h3.6v-4.1H262.7z
				 M290.3,47.3c-0.9,1.4-2.1,2.7-3.4,3.8c0.5,0.9,1.1,1.3,1.9,1.3c0.5,0,0.9-0.9,1-2.8c0.7,0.6,1.7,1.1,2.4,1.4
				c-0.5,3.3-1.6,4.6-3.8,4.6c-1.8,0-3.2-0.9-4.3-2.5c-1.2,0.8-2.4,1.4-3.7,1.9c-0.4-0.6-1.3-1.6-2-2.2c1.5-0.6,3-1.4,4.5-2.4
				c-0.5-1.5-0.8-3.1-1.1-5h-3.5v1.3l2.9-0.3l0.1,2.9l-2.9,0.3v2.3c0,1.6-0.3,2.3-1.4,2.8c-1.1,0.5-2.7,0.5-4.8,0.5
				c-0.1-0.9-0.6-2.1-1-2.9c1.2,0,2.6,0,3,0c0.4,0,0.6-0.1,0.6-0.5v-1.8c-1.5,0.2-3,0.3-4.3,0.5l-0.4-3.2c1.4-0.1,2.9-0.2,4.7-0.4
				v-1.7h-4.5v-3h4.5V41c-1.1,0.1-2.3,0.2-3.3,0.3c-0.1-0.7-0.5-1.7-0.8-2.4c3-0.3,6.6-0.8,8.7-1.5l2.2,2.4c0-0.7-0.1-1.3-0.1-1.9
				h3.6c0,1.6,0,3.2,0.1,4.6h3.7c-0.7-1-2.2-2.3-3.4-3.2l2.4-1.6c1.3,0.9,2.9,2.2,3.7,3.2l-2.3,1.6h2.5v3h-6.3
				c0.1,1,0.3,1.8,0.5,2.6c0.6-0.7,1.3-1.4,1.7-2.2L290.3,47.3z M291.6,37.2h-21.4v-3h8.6v-1.4h-6.4v-2.6h6.4v-1.3h-7.5v-2.7h3.9
				c-0.4-0.7-0.9-1.5-1.4-2.2l3-1c0.8,1,1.6,2.3,2,3.2h4.4c0.6-1,1.3-2.3,1.6-3.2l3.7,0.9c-0.5,0.8-1.1,1.6-1.7,2.3h3.9v2.7H283v1.3
				h6.8v2.6H283v1.4h8.6L291.6,37.2z M281.5,42.5c-0.1-0.9-0.1-1.7-0.1-2.6c-0.9,0.2-1.9,0.5-3,0.7v2H281.5z"/>
			<path class="st60" d="M307.4,46.1c-0.5-1.1-1.4-2.9-2.2-4.4v13.8h-4.1V42.6c-1,2.9-2.2,5.6-3.6,7.5c-0.4-1.3-1.3-3.1-1.8-4.1
				c1.7-2.3,3.4-6,4.4-9.3h-3.9v-3.9h4.9v-4.2c-1.1,0.2-2.3,0.4-3.4,0.6c-0.2-0.9-0.7-2.3-1.1-3.2c3.7-0.6,7.7-1.7,10.4-2.9l2.3,3.4
				c-1.3,0.5-2.6,0.9-4.1,1.3v5h4v3.9h-4v0.6c0.9,1,3.8,4.6,4.5,5.5L307.4,46.1z M329.3,51.1v3.7h-20.7v-3.7h8.6V48h-6.8v-3.5h6.8
				v-2.8c-1.9,0.1-3.8,0.2-5.6,0.3c-0.1-0.9-0.6-2.3-1-3.1c5.2-0.3,11-1,14.6-1.9l2.6,3.1c-1.9,0.5-4.1,0.8-6.3,1.1v3.3h6.4V48h-6.4
				v3.2H329.3z M327.6,36.5h-17v-12h17V36.5z M323.5,28h-8.9v5h8.9V28z"/>
		</g>
		<polyline class="st182" points="346.2,46.2 461.2,46.2 447.2,32.6 		"/>
	</g>
</g>
<g id="參考線">
</g>
<g id="Dimensions">
</g>
</svg>
