<?xml version="1.0" encoding="utf-8"?>
<!-- Generator: Adobe Illustrator 27.9.0, SVG Export Plug-In . SVG Version: 6.00 Build 0)  -->
<svg version="1.1" id="圖層_1" xmlns="http://www.w3.org/2000/svg" xmlns:xlink="http://www.w3.org/1999/xlink" x="0px" y="0px"
	 viewBox="0 0 590 75" style="enable-background:new 0 0 590 75;" xml:space="preserve">
<style type="text/css">
	.st0{fill:#D6CD43;}
	.st1{fill:none;stroke:#005156;stroke-width:0.9812;stroke-miterlimit:10;}
	.st2{enable-background:new    ;}
	.st3{fill:#005156;}
</style>
<g id="圖層_1_00000133490631286199782080000014987138402448407692_">
	<g>
		<path class="st0" d="M556.7,75H33.3C15,75,0,60,0,41.7v-8.4C0,15,15,0,33.3,0h523.4C575,0,590,15,590,33.3v8.4
			C590,60,575,75,556.7,75z"/>
		<g>
			<polyline class="st1" points="359.8,45.2 474.8,45.2 460.8,31.6 			"/>
			<g class="st2">
				<path class="st3" d="M135,45.5c-0.5,1.8-1.3,3.5-2.6,5c4.6,1.5,10.5,1.7,17.7,1.6c-0.8,1-1.6,2.7-1.8,4.2
					c-7.7-0.2-14.3-0.7-19.4-3c-2.4,1.4-5.5,2.5-9.7,3.4c-0.5-1-1.6-2.8-2.6-3.8c3.4-0.5,6-1.2,8.1-2.1c-1.4-1.1-2.6-2.4-3.7-4
					l3.2-1.3h-3.8V30.8h10.6v-2.1h-13.7v-3.8h31.3v3.8h-13.1v2.1h10.9v14.7H135z M124.5,36.5h6.6v-2.3h-6.6V36.5z M124.5,42h6.5
					c0-0.4,0-0.8,0-1.2v-1.1h-6.6V42z M124.9,45.5c1,1.3,2.1,2.3,3.5,3.1c1-1,1.6-2,2.1-3.1H124.9z M142.3,39.7h-6.7v1.2
					c0,0.4,0,0.8,0,1.1h6.7V39.7z M135.5,34.2v2.3h6.7v-2.3H135.5z"/>
				<path class="st3" d="M185.9,40.8c-5,10.9-16.7,14.6-30.3,15.9c-0.3-1.2-1-3-1.7-4.1c5.6-0.4,11-1.2,15.5-2.8
					c-1-1-2.4-2.2-3.7-3.3c-1.4,0.7-3,1.4-4.6,2c-0.5-1-1.7-2.5-2.6-3.3c7.4-2.3,12.3-5.8,15-9.2L178,37c-0.7,0.8-1.4,1.6-2.2,2.4
					h6.4l0.8-0.2L185.9,40.8z M181.2,27.7c-4.6,8.2-14.7,12.6-25,14.6c-0.4-1.1-1.2-2.8-2-3.7c3.6-0.5,7.2-1.4,10.5-2.7
					c-1-1-2.2-2.2-3.5-3.2c-1,0.6-2.1,1.1-3.2,1.6c-0.6-1-2-2.4-2.9-3c5.7-2.1,10-5.2,12.4-8l4.6,1.1c-0.6,0.6-1.2,1.3-1.9,1.9h7.5
					l0.8-0.2L181.2,27.7z M165.6,29.9c-0.3,0.2-0.7,0.5-1,0.7c1.5,1.1,3,2.4,4,3.5c2.3-1.2,4.3-2.6,5.9-4.2H165.6z M171.3,43.1
					c-0.7,0.5-1.4,0.9-2.1,1.4c1.5,1.1,3.1,2.4,4.2,3.5c2.4-1.3,4.5-3,6-4.9H171.3z"/>
				<path class="st3" d="M221.5,48.1c-1.4,1-3.1,2-4.6,2.7c1.8,1,3.9,1.8,6.2,2.2c-0.8,0.9-1.9,2.4-2.5,3.5
					c-6.2-1.5-10.1-5-12.5-10.2h-3.6V52l6-1.1c-0.2,1-0.4,2.6-0.4,3.5c-7.9,1.7-9.1,2-9.9,2.5v0c-0.2-1-1-2.7-1.5-3.4
					c0.8-0.5,1.8-1.5,1.8-3.3v-3.7h-3v-3.6h5.2v-2.5h-4.5v-3.5h4.5v-2.5h-5.2v1c0,6.2-0.6,15.5-4.3,21.4c-0.9-0.7-2.7-1.8-3.8-2.2
					c3.5-5.5,3.8-13.5,3.8-19.2V24.8h27.5v9.5H216v2.5h5.1v3.5H216v2.5h6.7v3.6h-3.7L221.5,48.1z M197.6,30.8h18.9v-2.4h-18.9V30.8z
					 M206.7,36.8h5.3v-2.5h-5.3V36.8z M206.7,42.8h5.3v-2.5h-5.3V42.8z M212.1,46.4c0.5,0.9,1.2,1.7,2,2.4c1.2-0.7,2.5-1.6,3.6-2.4
					H212.1z"/>
				<path class="st3" d="M254.8,53.1c1.1,0,1.4-0.4,1.5-2.7c0.8,0.5,2.5,1.1,3.5,1.2c-0.4,3.7-1.5,4.6-4.6,4.6h-5.3
					c-4.2,0-5.3-1-5.3-4.1v-1.4h-3.9c-1.1,3.5-3.9,5.1-12.5,6c-0.2-1-1.1-2.4-1.8-3.2c6.8-0.3,9-1,10-2.7h-4.5v-12h22.6v12h-5.7v1.4
					c0,0.9,0.3,1,1.7,1H254.8z M243.1,37.6h-14.9V24.4h14.6v2.4h-5.1V28h4.4v0.8c2.1-1.6,3.4-3.6,4-5.5l3.6,0.6
					c-0.1,0.4-0.3,0.8-0.5,1.2h9.9v2.6h-11.3c-0.2,0.4-0.5,0.7-0.7,1h10.4v2.3h-11v-1.6c-0.5,0.6-1.2,1.2-1.9,1.8
					c-0.6-0.7-1.7-1.7-2.6-2.2v4.8h-4.4v1.5h5.4V37.6z M231.8,26.8V28h2.5v-1.2H231.8z M238.5,30.3h-6.7v1.4h6.7V30.3z M231.8,35.3
					h2.5v-1.5h-2.5V35.3z M235.9,42h14.4v-1.1h-14.4V42z M235.9,45.3h14.4v-1.1h-14.4V45.3z M235.9,48.5h14.4v-1.2h-14.4V48.5z
					 M244.4,32h14.2v5.7h-14.2V32z M247.2,35.8h1.4V34h-1.4V35.8z M250.7,35.8h1.5V34h-1.5V35.8z M254.2,35.8h1.4V34h-1.4V35.8z"/>
				<path class="st3" d="M276.5,32.5h-13.1v-3.4h5.7c-0.5-1.4-1.4-3.1-2.1-4.5l3-1.5c0.9,1.5,1.9,3.4,2.4,4.7l-2.2,1.3h6.2V32.5z
					 M264.9,37.4v-3.2h10.4v3.2H264.9z M264.9,38.9h10.4v3.2h-10.4V38.9z M275.3,54.7h-7.1v1.5h-3.2V43.9h10.4V54.7z M268.2,47.3v4
					h3.8v-4H268.2z M293,25.1c-0.3,11.7-0.3,26.4,1,26.8c0.2,0.1,0.4-2.2,0.5-4.5c0.6,1.1,1.6,2.8,2.2,3.4c-0.5,5.2-2.4,6.3-4.6,5.4
					c-3.4-1.4-3.4-13.8-3.4-27.1h-4.3v9.4h3.4v4h-3.4v14.1h-4V42.5h-4v-4h4v-9.4H277v-4H293z"/>
				<path class="st3" d="M299.9,53c1.2-2,2.6-5,3.4-7.5l3.8,1.6c-0.9,2.5-2.1,5.7-3.2,7.8L299.9,53z M315.5,43.9h-10.2V26.4h8.2
					c0.4-1.2,0.7-2.5,0.9-3.5l5.1,0.6c-0.5,1.1-1.1,2-1.5,2.9h9.8v17.5h-10.3c1.5,1.5,3,3.3,3.7,4.7l-3.5,2c-0.7-1.6-2.6-4-4.2-5.6
					L315.5,43.9z M320.5,52.2c1.7,0,2-0.5,2.2-3.9c0.9,0.7,2.7,1.3,3.9,1.5c-0.5,5-1.8,6.2-5.7,6.2h-6.8c-5,0-6.3-1.2-6.3-5v-4.9
					h4.3V51c0,1.1,0.4,1.2,2.4,1.2H320.5z M309.4,31.3h14.1v-1.6h-14.1V31.3z M309.4,36h14.1v-1.6h-14.1V36z M309.4,40.7h14.1V39
					h-14.1V40.7z M328.9,44.9c1.6,2.4,3.4,5.5,4,7.6l-4.1,1.7c-0.5-2.1-2.1-5.3-3.6-7.8L328.9,44.9z"/>
			</g>
		</g>
	</g>
</g>
<g id="參考線">
</g>
<g id="Dimensions">
</g>
</svg>
