<?xml version="1.0" encoding="utf-8"?>
<!-- Generator: Adobe Illustrator 16.0.0, SVG Export Plug-In . SVG Version: 6.00 Build 0)  -->
<!DOCTYPE svg PUBLIC "-//W3C//DTD SVG 1.1//EN" "http://www.w3.org/Graphics/SVG/1.1/DTD/svg11.dtd">
<svg version="1.1" id="圖層_1" xmlns="http://www.w3.org/2000/svg" xmlns:xlink="http://www.w3.org/1999/xlink" x="0px" y="0px"
	 width="270px" height="90px" viewBox="0 0 270 90" enable-background="new 0 0 270 90" xml:space="preserve">
<g>
	<path fill="#FF8900" d="M238.671,75.818H31.329C14.098,75.818,0,61.721,0,44.49V31.328C0,14.098,14.098,0,31.329,0h207.342
		C255.9,0,270,14.098,270,31.328V44.49C270,61.721,255.9,75.818,238.671,75.818z"/>
	<g>
		
			<image overflow="visible" opacity="0.25" width="204" height="55" xlink:href="4710A6D6.png"  transform="matrix(1 0 0 1 32.2861 9.2432)">
		</image>
		<g>
			<g>
				<path fill="#FFFFFF" d="M60.011,26.586v5.836l0.721-0.855c3.891,2.008,9.548,5.205,12.286,7.51l-3.171,4.052
					c-2.09-1.896-6.197-4.609-9.836-6.766V54.02h-4.612V26.586H42.392v-4.461h32.103v4.461H60.011z"/>
				<path fill="#FFFFFF" d="M112.475,40.563H98.495v13.568h-4.468V40.563H80.084v-4.498h13.943V28.37h-6.017
					c-1.333,2.528-2.811,4.833-4.288,6.542c-0.937-0.78-2.918-2.081-4.071-2.713c3.027-2.974,5.621-7.955,7.062-12.974l4.576,1.152
					c-0.396,1.227-0.829,2.417-1.297,3.644h19.672v4.349H98.495v7.694h13.979V40.563z"/>
				<path fill="#FFFFFF" d="M136.583,38.035c-0.288,0.595-0.648,1.189-1.009,1.784h14.628c0,0-0.036,1.003-0.072,1.524
					c-0.504,7.249-1.08,10.222-2.053,11.3c-0.686,0.855-1.479,1.152-2.379,1.264c-0.828,0.112-2.197,0.149-3.639,0.075
					c-0.072-1.041-0.433-2.528-0.973-3.457c1.152,0.111,2.09,0.111,2.558,0.111c0.505,0,0.793-0.074,1.081-0.409
					c0.505-0.557,0.937-2.453,1.333-6.951h-1.405c-1.477,4.163-4.287,8.661-7.205,11.004c-0.721-0.855-1.946-1.859-3.027-2.454
					c2.738-1.784,5.152-5.093,6.702-8.55h-2.126c-1.945,3.568-5.296,7.286-8.431,9.33c-0.685-0.854-1.802-1.97-2.811-2.602
					c2.666-1.376,5.44-3.978,7.35-6.729h-2.161c-1.297,1.413-2.702,2.677-4.18,3.643c-0.54-0.706-1.909-2.007-2.811-2.602
					c-2.594,1.338-5.188,2.677-7.386,3.791l-1.585-4.46c1.225-0.483,2.738-1.115,4.432-1.822V31.344h-3.603v-4.163h3.603v-7.323
					h3.963v7.323h3.387v4.163h-3.387v8.773l2.882-1.301l0.756,3.16c1.297-1.153,2.414-2.49,3.315-3.94h-4.072v-3.717h22.663v3.717
					H136.583z M148.474,32.905h-17.043V20.341h17.043V32.905z M144.509,23.389h-9.295v1.785h9.295V23.389z M144.509,28.073h-9.295
					v1.784h9.295V28.073z"/>
				<path fill="#FFFFFF" d="M166.925,29.076h-11.746v-3.457h5.009c-0.324-1.375-1.045-3.383-1.802-4.906l3.063-1.153
					c0.829,1.524,1.729,3.68,2.054,4.944l-2.63,1.115h6.053V29.076z M165.952,52.086h-6.63v1.562h-3.026V40.935h9.656V52.086z
					 M156.44,30.749h9.584v3.346h-9.584V30.749z M156.44,35.805h9.584v3.308h-9.584V35.805z M159.322,44.317v4.387h3.567v-4.387
					H159.322z M187.102,45.396c-0.901,1.486-2.09,2.862-3.459,4.052c0.54,0.929,1.153,1.413,1.873,1.413
					c0.541,0,0.901-0.967,1.01-2.975c0.684,0.669,1.692,1.189,2.449,1.523c-0.505,3.569-1.657,4.871-3.855,4.871
					c-1.837,0-3.242-0.967-4.287-2.64c-1.188,0.817-2.45,1.486-3.675,2.044c-0.433-0.669-1.333-1.71-2.018-2.305
					c1.513-0.632,3.063-1.523,4.504-2.527c-0.469-1.562-0.829-3.309-1.081-5.354h-3.495v1.413l2.883-0.297l0.072,3.123l-2.955,0.371
					V50.6c0,1.71-0.324,2.491-1.441,3.011c-1.116,0.483-2.666,0.521-4.792,0.521c-0.144-0.929-0.612-2.23-1.044-3.123
					c1.225,0.038,2.594,0.038,2.99,0.038c0.432-0.038,0.576-0.149,0.576-0.559v-1.895c-1.549,0.186-2.99,0.371-4.324,0.52
					l-0.396-3.383c1.369-0.111,2.954-0.26,4.72-0.445v-1.785h-4.504v-3.196h4.504v-1.599c-1.153,0.148-2.27,0.223-3.351,0.297
					c-0.108-0.744-0.505-1.859-0.829-2.565c3.026-0.297,6.63-0.855,8.756-1.562l2.197,2.603c-0.036-0.706-0.072-1.413-0.072-2.082
					h3.567c0,1.747,0.036,3.42,0.108,4.907h3.711c-0.721-1.078-2.162-2.453-3.424-3.42l2.451-1.71
					c1.332,0.929,2.954,2.342,3.675,3.42l-2.343,1.71h2.559v3.196h-6.305c0.107,1.041,0.288,1.934,0.468,2.751
					c0.649-0.743,1.261-1.486,1.694-2.305L187.102,45.396z M188.435,34.615h-21.51v-3.16h8.684v-1.523h-6.414v-2.751h6.414v-1.413
					h-7.566v-2.936h3.927c-0.396-0.781-0.9-1.636-1.369-2.305l3.026-1.115c0.793,1.042,1.657,2.454,2.054,3.42h4.433
					c0.611-1.042,1.332-2.417,1.621-3.42l3.747,0.967c-0.541,0.855-1.153,1.71-1.694,2.454h3.892v2.936h-7.963v1.413h6.846v2.751
					h-6.846v1.523h8.684L188.435,34.615z M178.274,40.303c-0.072-0.93-0.108-1.822-0.145-2.825c-0.937,0.26-1.945,0.521-3.063,0.706
					v2.119H178.274z"/>
				<path fill="#FFFFFF" d="M204.257,44.094c-0.47-1.227-1.37-3.048-2.234-4.721v14.795h-4.071V40.34
					c-1.045,3.085-2.234,5.985-3.567,8.029c-0.36-1.339-1.261-3.271-1.838-4.386c1.694-2.454,3.388-6.394,4.433-9.962h-3.964v-4.126
					h4.937v-4.46c-1.153,0.223-2.306,0.446-3.388,0.595c-0.18-1.004-0.684-2.491-1.152-3.42c3.675-0.669,7.746-1.784,10.412-3.085
					l2.271,3.643c-1.262,0.521-2.63,0.967-4.071,1.338v5.39h4.035v4.126h-4.035v0.595c0.937,1.078,3.855,4.944,4.504,5.873
					L204.257,44.094z M226.306,49.484v3.94h-20.824v-3.94h8.683v-3.383h-6.846V42.31h6.846v-3.011
					c-1.909,0.149-3.854,0.26-5.656,0.334c-0.145-0.966-0.612-2.453-1.045-3.345c5.188-0.335,11.061-1.041,14.7-2.007l2.63,3.346
					c-1.909,0.483-4.107,0.854-6.377,1.189v3.494h6.449v3.792h-6.449v3.383H226.306z M224.577,33.798h-17.078V21.01h17.078V33.798z
					 M220.433,24.727h-8.971v5.353h8.971V24.727z"/>
			</g>
		</g>
	</g>
	<polygon fill="#FF8900" points="135,90 142.936,75.818 127.064,75.818 	"/>
</g>
</svg>
