<?xml version="1.0" encoding="utf-8"?>
<!-- Generator: Adobe Illustrator 27.9.0, SVG Export Plug-In . SVG Version: 6.00 Build 0)  -->
<svg version="1.1" xmlns="http://www.w3.org/2000/svg" xmlns:xlink="http://www.w3.org/1999/xlink" x="0px" y="0px"
	 viewBox="0 0 270 90" style="enable-background:new 0 0 270 90;" xml:space="preserve">
<style type="text/css">
	.st0{fill:#005156;}
	.st1{fill:#C6D6D7;}
	.st2{fill:url(#SVGID_1_);}
	.st3{opacity:0.7;}
	.st4{fill:url(#SVGID_00000039112337994613019050000012250896633339566236_);}
	.st5{fill:url(#SVGID_00000036971259345888952700000007782578226441690258_);}
	.st6{opacity:0.68;}
	.st7{fill:url(#SVGID_00000139274505008527396600000007366552885171665295_);}
	.st8{fill:url(#SVGID_00000135667506079276310180000017429040538239875501_);}
	.st9{fill:url(#SVGID_00000147192633150275008400000004670179220930315653_);}
	.st10{fill:url(#SVGID_00000047017722267836200110000004437564849008319915_);}
	.st11{fill:url(#SVGID_00000178911180259073724400000012479869569719467687_);}
	.st12{opacity:0.1;}
	.st13{fill:#C6C6C6;}
	.st14{opacity:0.3;}
	.st15{fill:#808080;}
	.st16{opacity:0.36;}
	.st17{fill:url(#SVGID_00000138561047101842066910000000255516752203161731_);}
	.st18{fill:url(#SVGID_00000090985792366992633180000018417928531947585690_);}
	.st19{fill:url(#SVGID_00000183938163457948721780000005433446339141327523_);}
	.st20{fill:url(#SVGID_00000149357609073143070270000009437436397265421717_);}
	.st21{fill:url(#SVGID_00000005261958065563513510000009048014571111369396_);}
	.st22{fill:url(#SVGID_00000096040164730676160090000002774570517552534928_);}
	.st23{fill:url(#SVGID_00000113329611729789172160000005528989644484578198_);}
	.st24{fill:url(#SVGID_00000167376389517683386930000013905382671419808141_);}
	.st25{fill:url(#SVGID_00000085938274225491230640000002032133993650711962_);}
	.st26{fill:url(#SVGID_00000089548273561755968420000017375931509321809323_);}
	.st27{fill:url(#SVGID_00000090985851001313578700000009512338057573454250_);}
	.st28{fill:url(#SVGID_00000124129230792688354400000018226969924531055271_);}
	.st29{fill:url(#SVGID_00000008862078762181879790000011138398229995408286_);}
	.st30{fill:url(#SVGID_00000121993285034684111650000017156053833457107094_);}
	.st31{fill:url(#SVGID_00000015340935339704664310000004516554997449306023_);}
	.st32{fill:url(#SVGID_00000008859376016310605680000005651421872540451494_);}
	.st33{fill:url(#SVGID_00000132771411813099849070000002047351786821824937_);}
	.st34{fill:url(#SVGID_00000011009798134785240870000003182915622139151004_);}
	.st35{fill:url(#SVGID_00000101103218776980506000000012090785366775366838_);}
	.st36{fill:url(#SVGID_00000130629190427774276880000008361591477419414956_);}
	.st37{fill:url(#SVGID_00000007418184770217807540000001555644358008593552_);}
	.st38{fill:url(#SVGID_00000013896214736485178060000001252618956165980294_);}
	.st39{fill:url(#SVGID_00000025428652134875804180000012435857179842768009_);}
	.st40{fill:url(#SVGID_00000127046494301917111200000004792174512190920100_);}
	.st41{fill:url(#SVGID_00000129204602859924335990000012703469502121238974_);}
	.st42{fill:url(#SVGID_00000031201297209425044040000002964450471320576900_);}
	.st43{fill:url(#SVGID_00000114752851896817190920000014070680260459760302_);}
	.st44{fill:url(#SVGID_00000060738822881984363520000000231812022185747846_);}
	.st45{fill:url(#SVGID_00000068674570935362980800000002889913244738512308_);}
	.st46{fill:url(#SVGID_00000029037533344874356120000013269060138399042448_);}
	.st47{fill:url(#SVGID_00000158727442452018287700000007821025330670201232_);}
	.st48{fill:url(#SVGID_00000050629697717528735450000002725516114101011132_);}
	.st49{fill:url(#SVGID_00000170280526021295533940000015238954799647176836_);}
	.st50{fill:url(#SVGID_00000044176740377529538750000015842827149090448036_);}
	.st51{fill:url(#SVGID_00000024708195848688326560000010365064291627090353_);}
	.st52{fill:url(#SVGID_00000141418253469325200700000007924898017482480538_);}
	.st53{fill:url(#SVGID_00000138558671050842855550000016913224729515914125_);}
	.st54{fill:url(#SVGID_00000003101696983685031030000001861222772388021437_);}
	.st55{fill:url(#SVGID_00000101091283319641980920000002291575613103682948_);}
	.st56{fill:url(#SVGID_00000036929857387470210630000012436380189768804756_);}
	.st57{fill:url(#SVGID_00000071551545358634175390000004777322950324950444_);}
	.st58{fill:url(#SVGID_00000067221355694040294240000001373420590349060995_);}
	.st59{fill:url(#SVGID_00000140012243416133855670000003905482139792186812_);}
	.st60{fill:#FFFFFF;}
	.st61{fill:#00A47E;}
	.st62{fill:#93B3B5;}
	.st63{fill:none;stroke:#005156;stroke-width:0.75;stroke-miterlimit:10;}
	.st64{fill:none;stroke:#000000;stroke-width:0.25;stroke-miterlimit:10;}
	.st65{opacity:0.48;}
	.st66{opacity:0.8;fill:#231815;}
	.st67{fill-rule:evenodd;clip-rule:evenodd;fill:#FFFFFF;}
	.st68{fill:url(#SVGID_00000056416075158813997080000004779729517966779803_);}
	.st69{clip-path:url(#SVGID_00000101793141013178533320000009106033223951028105_);}
	.st70{fill:#EDE127;}
	.st71{fill:#139287;}
	.st72{fill:#68A831;}
	.st73{fill:url(#SVGID_00000155825710578816138090000016625729401304972435_);}
	.st74{fill:url(#SVGID_00000155122866033803261550000003811199931036808627_);}
	.st75{fill:url(#SVGID_00000094581083610246422580000002107509561321641660_);}
	.st76{fill:url(#SVGID_00000030451071500033144790000013088413289613584528_);}
	.st77{fill:url(#SVGID_00000103239832642345898040000012058762258366803388_);}
	.st78{fill:url(#SVGID_00000176763378854871162320000016074691638545540541_);}
	.st79{fill:url(#SVGID_00000053537274117735675770000014975000896020045238_);}
	.st80{fill:url(#SVGID_00000122693656792778418480000011097274055085376156_);}
	.st81{fill:#8FC147;}
	.st82{fill:#EDBB1D;}
	.st83{fill:#D6CD43;}
	.st84{fill:url(#SVGID_00000141440175292561462390000003060092957329617582_);}
	.st85{fill:#004250;}
	.st86{fill:#209990;}
	.st87{fill:url(#SVGID_00000034061866827898098250000004469092664305715366_);}
	.st88{clip-path:url(#SVGID_00000121978825385765886840000013873952864819543975_);}
	.st89{fill:url(#SVGID_00000012450112066448118930000011921793918061073058_);}
	.st90{fill:#313333;}
	.st91{fill:url(#SVGID_00000016043749109718464350000009275583972399723144_);}
	.st92{fill:url(#SVGID_00000135667068218402336040000016909162085960305548_);}
	.st93{fill:url(#SVGID_00000083795072438076266260000003856724721018429346_);}
	.st94{fill:url(#SVGID_00000132802094716042029360000009609681124560722349_);}
	.st95{fill:url(#SVGID_00000151512561014859538400000008117309446993096111_);}
	.st96{fill:url(#SVGID_00000136387751986863090550000017638812293955108765_);}
	.st97{fill:url(#SVGID_00000168101697634213852140000014644415157047244417_);}
	.st98{fill:#2E8B36;}
	.st99{fill:#067788;}
	.st100{fill:#E9E9E9;}
	.st101{fill:#D9D9D9;}
	.st102{fill:#C9C9C9;}
	.st103{fill:#B9B9B9;}
	.st104{fill:#A9A9A8;}
	.st105{fill:#999998;}
	.st106{fill:#898988;}
	.st107{fill:#7F7F7E;}
	.st108{fill:#6F6F6E;}
	.st109{fill:#EEEEEE;}
	.st110{fill:#EFEFEF;}
	.st111{fill:#DFDFDF;}
	.st112{fill:#CFCFCF;}
	.st113{fill:#BFBFBF;}
	.st114{fill:#AFAFAE;}
	.st115{fill:#9F9F9E;}
	.st116{fill:#8F8F8E;}
	.st117{fill:#FF8900;}
	.st118{fill:none;stroke:#FFFFFF;stroke-miterlimit:10;}
	.st119{fill:none;stroke:#005156;stroke-miterlimit:10;}
	.st120{fill:none;stroke:#FFFFFF;stroke-width:0.75;stroke-miterlimit:10;}
	.st121{clip-path:url(#SVGID_00000098199332919731760070000013862399446272736666_);}
	.st122{fill:none;stroke:#231815;stroke-width:0.25;stroke-miterlimit:10;}
	.st123{opacity:0.8;fill:none;stroke:#231815;stroke-width:0.5;stroke-miterlimit:10;}
	.st124{fill:#0B308A;}
	.st125{fill:#231815;}
	.st126{fill:#17264B;}
	.st127{fill:#BCCDE4;}
	.st128{fill:#1C96D5;}
	.st129{fill-rule:evenodd;clip-rule:evenodd;}
	
		.st130{clip-path:url(#SVGID_00000132058762388055548250000009535256447557113472_);fill:url(#SVGID_00000057860395692482335280000015282950432602943628_);}
	
		.st131{clip-path:url(#SVGID_00000179644754427100640340000007121223002567090831_);fill:url(#SVGID_00000054223476602662083440000014528448682234192011_);}
	
		.st132{clip-path:url(#SVGID_00000088820510360723090720000007273743194804089490_);fill:url(#SVGID_00000039825994207030898150000014103861898113083795_);}
	
		.st133{clip-path:url(#SVGID_00000021108322077097667410000001147765286287717046_);fill:url(#SVGID_00000145018017470716786760000008201530733817669292_);}
	.st134{fill:#1C2A51;}
	.st135{fill:url(#SVGID_00000111906326716159229380000009387639954690224543_);}
	.st136{fill:url(#SVGID_00000056427704158347032970000017398851021657385628_);}
	.st137{fill:url(#SVGID_00000163764499663486425370000007550359694098863028_);}
	.st138{fill:url(#SVGID_00000175299967704828586880000009644453960015464098_);}
	.st139{fill-rule:evenodd;clip-rule:evenodd;fill:#3DCA52;}
	.st140{fill:url(#SVGID_00000091003613389203601030000004152358024178854829_);}
	.st141{fill:url(#SVGID_00000131368501031398036570000014765086869598868402_);}
	.st142{fill:#AE8346;}
	.st143{fill:#FF5800;}
	.st144{fill:url(#SVGID_00000085236794288285376000000004886186662314310282_);}
	.st145{clip-path:url(#SVGID_00000141424662551684098630000009057127263535919790_);}
	.st146{fill:url(#SVGID_00000180347003114721716370000007532417956449743028_);}
	.st147{fill:url(#SVGID_00000106851054019005272420000012534937929408260239_);}
	.st148{fill:url(#SVGID_00000054245502335996526540000016484177572879956386_);}
	.st149{fill:url(#SVGID_00000083790516111461832740000015340465104780223148_);}
	.st150{fill:url(#SVGID_00000139983694472699944050000006059095225336997004_);}
	.st151{fill:url(#SVGID_00000034774462869469821240000009722395643321987494_);}
	.st152{fill:url(#SVGID_00000064314461190253772470000012461002206210954911_);}
	.st153{fill:url(#SVGID_00000090261663903952458790000011359418273504491961_);}
	.st154{fill:url(#SVGID_00000119812762929519795900000016452153070391567260_);}
	.st155{fill:url(#SVGID_00000068658111206959582480000015365197663317022357_);}
	.st156{clip-path:url(#SVGID_00000087395744533044822780000017790582081931947958_);}
	.st157{fill:url(#SVGID_00000101792853201676209540000004072839193098790536_);}
	.st158{fill:url(#SVGID_00000065056428365390588250000006417560703119632520_);}
	.st159{fill:url(#SVGID_00000025427302298634435160000007360393620870770319_);}
	.st160{fill:url(#SVGID_00000181791889279238448600000012085865644184364463_);}
	.st161{fill:url(#SVGID_00000071558878484158247170000001990553257818573995_);}
	.st162{fill:url(#SVGID_00000142890859680971053630000006043274643476035517_);}
	.st163{fill:url(#SVGID_00000015320861026760794570000015500634581139139499_);}
	.st164{fill:url(#SVGID_00000099644112604158415980000004795664675322526619_);}
	.st165{fill:none;stroke:#005156;stroke-width:0.9812;stroke-miterlimit:10;}
	
		.st166{clip-path:url(#SVGID_00000178897294064586933800000007175266292749471624_);fill:url(#SVGID_00000146475661729442253280000015897334764953454490_);}
	
		.st167{clip-path:url(#SVGID_00000065771526898949502700000008388967861324377512_);fill:url(#SVGID_00000088101484090122869540000005533775954502041984_);}
	
		.st168{clip-path:url(#SVGID_00000135680961836593675130000016148430256034178198_);fill:url(#SVGID_00000177458577947149905120000010989724848913009339_);}
	
		.st169{clip-path:url(#SVGID_00000090263437407435348980000018108602829182359437_);fill:url(#SVGID_00000148621612580537924920000017226961256956458687_);}
	.st170{fill:url(#SVGID_00000179605357469673480120000007442520929374313642_);}
	.st171{fill:url(#SVGID_00000127759923466637912220000016494037253095569852_);}
	.st172{fill:url(#SVGID_00000034781938690812482430000016514735956415319181_);}
	.st173{fill:url(#SVGID_00000139269839366425579330000008893420043890360220_);}
	.st174{fill:url(#SVGID_00000041991568907190974920000018391676263100665022_);}
	.st175{fill:url(#SVGID_00000023279097151322839190000006124992012972459670_);}
	.st176{fill:#559A34;}
	.st177{fill:none;}
	.st178{fill:#FFCA00;}
	.st179{fill:#FFC0A3;}
	.st180{fill:#73D194;}
	.st181{fill:#FFCB00;}
	.st182{fill:none;stroke:#FFFFFF;stroke-width:0.9812;stroke-miterlimit:10;}
	.st183{fill:#006195;}
	
		.st184{clip-path:url(#SVGID_00000131366574138764779420000001564100849253561535_);fill:url(#SVGID_00000108994932755975435990000000179087419115515039_);}
	
		.st185{clip-path:url(#SVGID_00000036227468694004214040000002760840040599182253_);fill:url(#SVGID_00000029011433558415757560000012433461042029163659_);}
	
		.st186{clip-path:url(#SVGID_00000157273769766386971880000005282033286000409258_);fill:url(#SVGID_00000104676633762724513410000000909292178267210161_);}
	
		.st187{clip-path:url(#SVGID_00000157305449228250406760000015079256284682280353_);fill:url(#SVGID_00000026129808365304463230000001767234704633684637_);}
	.st188{fill:url(#SVGID_00000063625962106478467910000014867358878083052712_);}
	.st189{fill:url(#SVGID_00000087378570071145163480000010957652178253905053_);}
	.st190{fill:url(#SVGID_00000090292586329702381810000001412477154823870628_);}
	.st191{fill:url(#SVGID_00000076577916180406993820000018111296148337725624_);}
	.st192{fill:url(#SVGID_00000144319541750840367110000012349240394827836855_);}
	.st193{fill:url(#SVGID_00000106837360693804260410000012805652082709533827_);}
	
		.st194{clip-path:url(#SVGID_00000080886283794192226060000013970750515310404267_);fill:url(#SVGID_00000007403314687386928220000017012172273732792976_);}
	
		.st195{clip-path:url(#SVGID_00000086666801590729303290000014638950343064543160_);fill:url(#SVGID_00000085954778425416462380000012401335810748394914_);}
	
		.st196{clip-path:url(#SVGID_00000168096766273741972740000007220638523174986650_);fill:url(#SVGID_00000105427440382592326380000009594012088058073010_);}
	
		.st197{clip-path:url(#SVGID_00000015329676673132408450000017693327443117034686_);fill:url(#SVGID_00000101812936602171396670000004438274276946169268_);}
	.st198{fill:url(#SVGID_00000149362476529096792000000016591905222808463770_);}
	.st199{fill:url(#SVGID_00000132808009657555385360000014906382538130824862_);}
	.st200{fill:url(#SVGID_00000016060065354600361020000001503032814213824949_);}
	.st201{fill:url(#SVGID_00000127031820824448585420000017536249169631626892_);}
	.st202{fill:url(#SVGID_00000096750517740741350310000017468636641784803256_);}
	.st203{fill:url(#SVGID_00000007400212671129823230000004291324369405861271_);}
</style>
<g id="圖層_1">
	<g>
		<path class="st117" d="M238.7,75.8H31.3C14.1,75.8,0,61.7,0,44.5V31.3C0,14.1,14.1,0,31.3,0h207.3C255.9,0,270,14.1,270,31.3v13.2
			C270,61.7,255.9,75.8,238.7,75.8z"/>
		<g>
			<g>
				<path class="st181" d="M60,26.6v5.8l0.7-0.9c3.9,2,9.5,5.2,12.3,7.5l-3.2,4.1c-2.1-1.9-6.2-4.6-9.8-6.8V54h-4.6V26.6h-13v-4.5
					h32.1v4.5H60z"/>
				<path class="st181" d="M112.5,40.6h-14v13.6H94V40.6H80.1v-4.5H94v-7.7h-6c-1.3,2.5-2.8,4.8-4.3,6.5c-0.9-0.8-2.9-2.1-4.1-2.7
					c3-3,5.6-8,7.1-13l4.6,1.2c-0.4,1.2-0.8,2.4-1.3,3.6h19.7v4.3H98.5v7.7h14V40.6z"/>
				<path class="st181" d="M136.6,38c-0.3,0.6-0.6,1.2-1,1.8h14.6c0,0,0,1-0.1,1.5c-0.5,7.2-1.1,10.2-2.1,11.3
					c-0.7,0.9-1.5,1.2-2.4,1.3c-0.8,0.1-2.2,0.1-3.6,0.1c-0.1-1-0.4-2.5-1-3.5c1.2,0.1,2.1,0.1,2.6,0.1c0.5,0,0.8-0.1,1.1-0.4
					c0.5-0.6,0.9-2.5,1.3-7h-1.4c-1.5,4.2-4.3,8.7-7.2,11c-0.7-0.9-1.9-1.9-3-2.5c2.7-1.8,5.2-5.1,6.7-8.5H139
					c-1.9,3.6-5.3,7.3-8.4,9.3c-0.7-0.9-1.8-2-2.8-2.6c2.7-1.4,5.4-4,7.4-6.7h-2.2c-1.3,1.4-2.7,2.7-4.2,3.6c-0.5-0.7-1.9-2-2.8-2.6
					c-2.6,1.3-5.2,2.7-7.4,3.8l-1.6-4.5c1.2-0.5,2.7-1.1,4.4-1.8V31.3h-3.6v-4.2h3.6v-7.3h4v7.3h3.4v4.2h-3.4v8.8l2.9-1.3L129,42
					c1.3-1.2,2.4-2.5,3.3-3.9h-4.1v-3.7h22.7V38H136.6z M148.5,32.9h-17V20.3h17V32.9z M144.5,23.4h-9.3v1.8h9.3V23.4z M144.5,28.1
					h-9.3v1.8h9.3V28.1z"/>
				<path class="st181" d="M166.9,29.1h-11.7v-3.5h5c-0.3-1.4-1-3.4-1.8-4.9l3.1-1.2c0.8,1.5,1.7,3.7,2.1,4.9l-2.6,1.1h6.1V29.1z
					 M166,52.1h-6.6v1.6h-3V40.9h9.7V52.1z M156.4,30.7h9.6v3.3h-9.6V30.7z M156.4,35.8h9.6v3.3h-9.6V35.8z M159.3,44.3v4.4h3.6
					v-4.4H159.3z M187.1,45.4c-0.9,1.5-2.1,2.9-3.5,4.1c0.5,0.9,1.2,1.4,1.9,1.4c0.5,0,0.9-1,1-3c0.7,0.7,1.7,1.2,2.5,1.5
					c-0.5,3.6-1.7,4.9-3.9,4.9c-1.8,0-3.2-1-4.3-2.6c-1.2,0.8-2.4,1.5-3.7,2c-0.4-0.7-1.3-1.7-2-2.3c1.5-0.6,3.1-1.5,4.5-2.5
					c-0.5-1.6-0.8-3.3-1.1-5.4h-3.5v1.4l2.9-0.3l0.1,3.1l-3,0.4v2.5c0,1.7-0.3,2.5-1.4,3c-1.1,0.5-2.7,0.5-4.8,0.5
					c-0.1-0.9-0.6-2.2-1-3.1c1.2,0,2.6,0,3,0c0.4,0,0.6-0.1,0.6-0.6v-1.9c-1.5,0.2-3,0.4-4.3,0.5l-0.4-3.4c1.4-0.1,3-0.3,4.7-0.4
					v-1.8h-4.5v-3.2h4.5v-1.6c-1.2,0.1-2.3,0.2-3.4,0.3c-0.1-0.7-0.5-1.9-0.8-2.6c3-0.3,6.6-0.9,8.8-1.6l2.2,2.6
					c0-0.7-0.1-1.4-0.1-2.1h3.6c0,1.7,0,3.4,0.1,4.9h3.7c-0.7-1.1-2.2-2.5-3.4-3.4l2.5-1.7c1.3,0.9,3,2.3,3.7,3.4l-2.3,1.7h2.6v3.2
					h-6.3c0.1,1,0.3,1.9,0.5,2.8c0.6-0.7,1.3-1.5,1.7-2.3L187.1,45.4z M188.4,34.6h-21.5v-3.2h8.7v-1.5h-6.4v-2.8h6.4v-1.4H168v-2.9
					h3.9c-0.4-0.8-0.9-1.6-1.4-2.3l3-1.1c0.8,1,1.7,2.5,2.1,3.4h4.4c0.6-1,1.3-2.4,1.6-3.4l3.7,1c-0.5,0.9-1.2,1.7-1.7,2.5h3.9v2.9
					h-8v1.4h6.8v2.8h-6.8v1.5h8.7L188.4,34.6z M178.3,40.3c-0.1-0.9-0.1-1.8-0.1-2.8c-0.9,0.3-1.9,0.5-3.1,0.7v2.1H178.3z"/>
				<path class="st181" d="M204.3,44.1c-0.5-1.2-1.4-3-2.2-4.7v14.8H198V40.3c-1,3.1-2.2,6-3.6,8c-0.4-1.3-1.3-3.3-1.8-4.4
					c1.7-2.5,3.4-6.4,4.4-10h-4v-4.1h4.9v-4.5c-1.2,0.2-2.3,0.4-3.4,0.6c-0.2-1-0.7-2.5-1.2-3.4c3.7-0.7,7.7-1.8,10.4-3.1l2.3,3.6
					c-1.3,0.5-2.6,1-4.1,1.3v5.4h4V34h-4v0.6c0.9,1.1,3.9,4.9,4.5,5.9L204.3,44.1z M226.3,49.5v3.9h-20.8v-3.9h8.7v-3.4h-6.8v-3.8
					h6.8v-3c-1.9,0.1-3.9,0.3-5.7,0.3c-0.1-1-0.6-2.5-1-3.3c5.2-0.3,11.1-1,14.7-2l2.6,3.3c-1.9,0.5-4.1,0.9-6.4,1.2v3.5h6.4v3.8
					h-6.4v3.4H226.3z M224.6,33.8h-17.1V21h17.1V33.8z M220.4,24.7h-9v5.4h9V24.7z"/>
			</g>
		</g>
		<polygon class="st177" points="135,90 142.9,75.8 127.1,75.8 		"/>
	</g>
</g>
<g id="參考線">
</g>
<g id="Dimensions">
</g>
</svg>
